PathFileType	4	(X/Y/Z)	/Users/niels/Desktop/University/Third Semester/Perception and Action/Exam/Gymnastics Motion Tracking/Code for Gym Tracking/Analyzed Data/Webcam_Backflip/id8_4_baseline_Sports2D/id8_4_baseline_Sports2D_px_person00.trc
DataRate	CameraRate	NumFrames	NumMarkers	Units	OrigDataRate	OrigDataStartFrame	OrigNumFrames
29.81132075471698	29.81132075471698	7	22	m	29.81132075471698	0	159
Frame#	Time	Hip			RHip			RKnee			RAnkle			RBigToe			RSmallToe			RHeel			LHip			LKnee			LAnkle			LBigToe			LSmallToe			LHeel			Neck			Head			Nose			RShoulder			RElbow			RWrist			LShoulder			LElbow			LWrist		
		X1	Y1	Z1	X2	Y2	Z2	X3	Y3	Z3	X4	Y4	Z4	X5	Y5	Z5	X6	Y6	Z6	X7	Y7	Z7	X8	Y8	Z8	X9	Y9	Z9	X10	Y10	Z10	X11	Y11	Z11	X12	Y12	Z12	X13	Y13	Z13	X14	Y14	Z14	X15	Y15	Z15	X16	Y16	Z16	X17	Y17	Z17	X18	Y18	Z18	X19	Y19	Z19	X20	Y20	Z20	X21	Y21	Z21	X22	Y22	Z22
0	0.0	0.9817501150550277	-0.5856704597672651	0.0	0.9858109355141207	-0.5870222353380437	0.0	0.9790309528260894	-0.684335900760107	0.0	0.970927917518104	-0.7802744792712664	0.0	1.0046857630879082	-0.7978478355169532	0.0	0.9952239661536018	-0.8018926770171146	0.0	0.9668740798853636	-0.7964864154502089	0.0	0.9804030318049158	-0.5856741194078822	0.0	0.9776908232882269	-0.6829904340549433	0.0	0.9682818505843339	-0.7736180537262445	0.0	0.9979377724112057	-0.7923967860418368	0.0	0.9925205640386632	-0.7897002750932143	0.0	0.9601067160545468	-0.7869470890420357	0.0	1.0073602398645771	-0.4531763235973354	0.0	1.0289465209667508	-0.3937101662085987	0.0	1.0384313979164859	-0.42613901050152336	0.0	1.0033230461218936	-0.46399763759293683	0.0	0.9832103707009257	-0.5208137761545927	0.0	0.9657782337143895	-0.5735545118067913	0.0	0.9965588092221884	-0.46401176912128594	0.0	0.981850273488017	-0.5113541936922766	0.0	0.9698096268593197	-0.5667855086717607	0.0
1	0.03354430379746835	0.9790378176737853	-0.5794198927374848	0.0	0.9824390984358141	-0.5800735667601535	0.0	0.9787081376460781	-0.6798253242296075	0.0	0.9710881018980692	-0.7766227988281164	0.0	1.004591087835156	-0.7942456568603429	0.0	0.9952891146007408	-0.798105822738112	0.0	0.9659134388384751	-0.791629888540547	0.0	0.9771866001119991	-0.5784292678369427	0.0	0.9774239325674112	-0.6777520090334914	0.0	0.96822199386089	-0.7693169021337832	0.0	0.9991746982770167	-0.7872010263550776	0.0	0.9940987886903246	-0.7848768200289594	0.0	0.9607060704595861	-0.7825706714122154	0.0	1.0100032715235328	-0.45024730008014446	0.0	1.0324028960392673	-0.3916067102660983	0.0	1.041407007683246	-0.4245544185293118	0.0	1.0058337976601226	-0.4606029309150453	0.0	0.9792182881409227	-0.5115734650476791	0.0	0.9557090064901921	-0.5593004796116083	0.0	0.9985197476408706	-0.4605167079098897	0.0	0.9779024658277691	-0.5045819850244081	0.0	0.9596046429966747	-0.5545351825818643	0.0
2	0.0670886075949367	0.9759479455581527	-0.5735581077670834	0.0	0.9787292547037784	-0.5736159680997275	0.0	0.9787123814425842	-0.6753547500789214	0.0	0.9712237459124363	-0.7729106485359417	0.0	1.004867914416206	-0.7904288943239384	0.0	0.9957486208250036	-0.7941745198670581	0.0	0.9650482172782414	-0.7868663919646331	0.0	0.973593300570521	-0.5717597993376184	0.0	0.9773864040847173	-0.6726955666101824	0.0	0.9683618783314184	-0.7652333432877797	0.0	1.000217396680639	-0.7819600517114954	0.0	0.9952365847831425	-0.7798757643359293	0.0	0.9611181344749092	-0.7783646382974939	0.0	1.012582504671851	-0.4477796877502322	0.0	1.0362185552116254	-0.3900112109686309	0.0	1.0445185828075156	-0.42323900816307447	0.0	1.0084486837508961	-0.45764446598682246	0.0	0.9754767572082713	-0.5026534474392863	0.0	0.9459720468351177	-0.5448171077346846	0.0	1.0007276653774337	-0.45738487700946917	0.0	0.9743124775070522	-0.4974433168946948	0.0	0.9502019046132762	-0.5416674202377003	0.0
3	0.10063291139240506	0.9721964686479772	-0.5684905667599157	0.0	0.9744438171528581	-0.5681089462471705	0.0	0.9794168139166066	-0.6709659054568998	0.0	0.9713176948469358	-0.7691052715997646	0.0	1.0056462909607027	-0.7862953877551627	0.0	0.996701599903747	-0.7900087605836724	0.0	0.9643508784341805	-0.7822434873671777	0.0	0.9694754060228821	-0.5661810333805513	0.0	0.9779102420890161	-0.6679632744858128	0.0	0.9687728496435859	-0.7613646394777941	0.0	1.0009093598139196	-0.7767671600634086	0.0	0.9955917903659598	-0.7747025444594048	0.0	0.9612747128850199	-0.7744000101097928	0.0	1.0150119581321597	-0.4463573236647914	0.0	1.0406257298982213	-0.38956043578593563	0.0	1.0478384023961285	-0.4227401262813796	0.0	1.0111884138208531	-0.45573069728314053	0.0	0.9721810002795931	-0.4945501601375573	0.0	0.9368814185343928	-0.5303871394252714	0.0	1.003289914282518	-0.4551498324844064	0.0	0.971370836531828	-0.49004228568123104	0.0	0.9422359732602387	-0.5282459246849313	0.0
4	0.1341772151898734	0.967684260375795	-0.5645616746739232	0.0	0.9695097929295164	-0.5638835264765628	0.0	0.9811320156705918	-0.6666750717386659	0.0	0.9713433478142309	-0.7651742283395246	0.0	1.0068046764846101	-0.7818624016094505	0.0	0.9979822243953075	-0.785608356929813	0.0	0.963810304824532	-0.7777191124484285	0.0	0.9649537342772815	-0.5620175773448305	0.0	0.9793376743737382	-0.6635980170251122	0.0	0.9693859553365622	-0.7576018485541779	0.0	1.0012316150273832	-0.7718922617298671	0.0	0.995064485527716	-0.7695924235538165	0.0	0.9611743510445026	-0.7706563062435388	0.0	1.0171863829722578	-0.44659121814110864	0.0	1.0456317821402956	-0.39087996784642687	0.0	1.0513345679434378	-0.42376242517489693	0.0	1.0139182434444578	-0.45554012514333697	0.0	0.9693624789598646	-0.48792940808705126	0.0	0.9286158092531506	-0.5168774593533414	0.0	1.0061387367289338	-0.45445978234555434	0.0	0.9691456691239941	-0.48307068358809785	0.0	0.9358383211841655	-0.5152082211387534	0.0
5	0.16772151898734178	0.9625349089450189	-0.5621384033099747	0.0	0.9640449215542366	-0.5612605046685318	0.0	0.9840027812866928	-0.6625845825214339	0.0	0.9712936850000885	-0.7611777593679389	0.0	1.0081402244590194	-0.7772681044246113	0.0	0.9993840545009635	-0.7811110048963714	0.0	0.9633466110248287	-0.773271033478891	0.0	0.9602734537139533	-0.559521961209239	0.0	0.981833898207056	-0.6596149678938309	0.0	0.9699137958992842	-0.7535924428989598	0.0	1.0013282329985742	-0.7677141044121046	0.0	0.993866162983977	-0.7649874422695119	0.0	0.960807203672675	-0.7671087576553288	0.0	1.0190099601301346	-0.44904202799353937	0.0	1.05095143428953	-0.3944894821517163	0.0	1.0548622890078219	-0.4269286850878368	0.0	1.0163420299788197	-0.4577288150270102	0.0	0.9668182668409875	-0.48376899474477475	0.0	0.9211532845255733	-0.505896898815208	0.0	1.0090146883771016	-0.4559739484916899	0.0	0.9673328025921245	-0.477888859151647	0.0	0.9305150884458506	-0.5044295230912855	0.0
6	0.20126582278481012	0.9570834613646328	-0.5616853702638109	0.0	0.9583743917182963	-0.5606973655045315	0.0	0.9879628526921054	-0.6590388257499562	0.0	0.9712159831283729	-0.7573967230668679	0.0	1.0094641109255396	-0.7728100150737827	0.0	1.000741360170883	-0.7768299405902056	0.0	0.9628988123527843	-0.7690624134341585	0.0	0.9556624635323511	-0.5590507167708183	0.0	0.9852935338218003	-0.6561573728350358	0.0	0.969868442848097	-0.7485713649792473	0.0	1.0013036197065703	-0.7644848299266044	0.0	0.9923608379064961	-0.7613698383191763	0.0	0.9601928581168491	-0.7637478987978676	0.0	1.0204184056618444	-0.45411834595464257	0.0	1.05604713244353	-0.40069449776040217	0.0	1.0581876720013277	-0.4325618155603065	0.0	1.0181089971088133	-0.4628152287063765	0.0	0.964197438265474	-0.48329651570856463	0.0	0.9143731089584253	-0.49957926131712016	0.0	1.0115104891631477	-0.46018219005367184	0.0	0.9653457274676557	-0.47623576090007125	0.0	0.9255128290761627	-0.4982628110282541	0.0
